# xmcd CD database file
#
# Track frame offsets:
#	150
#	29908
#	53760
#	81694
#	99079
#	126086
#	148468
#	181253
#	214361
#	246933
#
# Disc length: 3646 seconds
#
# Revision: 2
# Processed by: cddbd v1.5.2PL0 Copyright (c) Steve Scherf et al.
# Submitted via: CDex 1.51
#
DISCID=9b0e3c0a
DTITLE=Ornette Coleman - Introducing Ornette Coleman
DYEAR=2006
DGENRE=Jazz
TTITLE0=Ramblin'  [1959]
TTITLE1=Blues Connotation  [1960]
TTITLE2=Rise And Shine  [1960]
TTITLE3=Just For You  [1959]
TTITLE4=Una Muy Bonita  [1959]
TTITLE5=Lonely Woman  [1959]
TTITLE6=The Legend Of Bebop  [1959]
TTITLE7=Some Other  [1960]
TTITLE8=Beauty Is A Rare Thing  [1960]
TTITLE9=P.S. Unless She Has  (Blues Connotation 2)  [1960]
EXTD=YEAR: 2006
EXTT0=
EXTT1=
EXTT2=
EXTT3=
EXTT4=
EXTT5=
EXTT6=
EXTT7=
EXTT8=
EXTT9=
PLAYORDER=
